<svg width="18" height="22" viewBox="0 0 18 22" fill="none" xmlns="http://www.w3.org/2000/svg">
<path fill-rule="evenodd" clip-rule="evenodd" d="M12.5031 0C21.7818 0 17.4243 9.17913 13.1713 13.7082C12.8064 14.0969 12.1999 14.0969 11.835 13.7082C7.58197 9.17913 3.22444 0 12.5031 0ZM12.4982 3.08203C15.9965 3.08203 13.9965 7.19124 12.4989 7.19124C11.0013 7.19124 8.99995 3.08203 12.4982 3.08203ZM4.78365 14.3464C5.05804 14.3154 5.25532 14.0678 5.22429 13.7934C5.19325 13.519 4.94565 13.3217 4.67126 13.3528C4.4047 13.3829 4.12908 13.4378 3.84406 13.5192C3.50823 13.6151 3.19956 13.7491 2.9167 13.9148C2.67844 14.0544 2.59845 14.3607 2.73804 14.599C2.87763 14.8373 3.18394 14.9173 3.4222 14.7777C3.63346 14.6539 3.86464 14.5533 4.11862 14.4808C4.35412 14.4135 4.57551 14.37 4.78365 14.3464ZM15.1345 13.8764C14.9003 13.73 14.5918 13.8012 14.4455 14.0354C14.2991 14.2695 14.3703 14.578 14.6045 14.7244C15.0292 14.9898 15.4336 15.2884 15.7852 15.6179C15.9867 15.8067 16.3031 15.7964 16.4919 15.5949C16.6807 15.3934 16.6705 15.077 16.469 14.8882C16.0599 14.5049 15.601 14.1679 15.1345 13.8764ZM7.17553 13.8987C6.94082 13.7532 6.63261 13.8255 6.48713 14.0602C6.34165 14.2949 6.41398 14.6032 6.6487 14.7486C7.02071 14.9792 7.34907 15.2924 7.64077 15.6557C7.81366 15.871 8.12836 15.9054 8.34369 15.7325C8.55901 15.5597 8.59341 15.2449 8.42052 15.0296C8.07712 14.6019 7.66705 14.2033 7.17553 13.8987ZM1.91343 16.5415C2.03301 16.2926 1.92817 15.9939 1.67927 15.8743C1.43036 15.7547 1.13164 15.8596 1.01206 16.1085C0.738147 16.6786 0.540197 17.2849 0.396364 17.8738C0.330844 18.1421 0.495194 18.4127 0.763451 18.4782C1.03171 18.5437 1.30229 18.3794 1.36781 18.1111C1.49963 17.5714 1.67681 17.034 1.91343 16.5415ZM17.8779 17.0906C17.8072 16.8236 17.5335 16.6645 17.2666 16.7352C16.9996 16.8059 16.8405 17.0796 16.9112 17.3465C16.9667 17.5563 16.9966 17.7737 16.9966 17.9998C16.9966 18.3094 16.9348 18.5745 16.8295 18.8015C16.7133 19.0521 16.8222 19.3493 17.0727 19.4655C17.3232 19.5817 17.6205 19.4728 17.7367 19.2223C17.9064 18.8563 17.9966 18.4467 17.9966 17.9998C17.9966 17.6845 17.9548 17.381 17.8779 17.0906ZM9.63863 17.096C9.524 16.8448 9.22742 16.7341 8.97619 16.8487C8.72496 16.9633 8.61423 17.2599 8.72885 17.5112C8.83501 17.7438 8.92931 17.9641 9.01604 18.1667L9.02888 18.1966C9.18784 18.5679 9.39595 18.9036 9.64148 19.2034C9.81642 19.4171 10.1314 19.4485 10.3451 19.2735C10.5588 19.0986 10.5901 18.7836 10.4152 18.5699C10.2263 18.3392 10.0683 18.0837 9.94815 17.803L9.93437 17.7708L9.93429 17.7706C9.84822 17.5696 9.74978 17.3396 9.63863 17.096ZM12.7854 19.9716C12.5171 19.9064 12.2467 20.071 12.1814 20.3393C12.1162 20.6077 12.2808 20.8781 12.5491 20.9433C13.296 21.1249 14.073 21.1709 14.7984 21.0783C15.0723 21.0434 15.266 20.7929 15.231 20.519C15.1961 20.2451 14.9457 20.0514 14.6717 20.0864C14.0729 20.1628 13.4188 20.1256 12.7854 19.9716ZM1.01922 20.6411C1.03262 20.3653 0.819877 20.1308 0.544059 20.1174C0.268242 20.104 0.0337917 20.3168 0.0204005 20.5926C0.000185005 21.009 0.000225261 21.3257 0.000245479 21.4847V21.4848L0.000248311 21.4994C0.000248311 21.7756 0.224106 21.9994 0.500248 21.9994C0.776391 21.9994 1.00025 21.7756 1.00025 21.4994L1.00025 21.4854C1.00023 21.3304 1.00019 21.0331 1.01922 20.6411Z" fill="#5957DB"/>
</svg>
