<svg width="18" height="22" viewBox="0 0 18 22" fill="none" xmlns="http://www.w3.org/2000/svg">
<path fill-rule="evenodd" clip-rule="evenodd" d="M11.5182 0.632804C11.7491 0.277448 12.1136 0 12.5375 0H17C17.5523 0 18 0.447715 18 1V21C18 21.5523 17.5523 22 17 22H12.5375C12.1136 22 11.7491 21.7226 11.5182 21.3672C10.9833 20.5442 10.0558 20 9.00113 20C7.94651 20 7.019 20.5442 6.4841 21.3672C6.25313 21.7226 5.88862 22 5.46479 22H1C0.447716 22 0 21.5523 0 21V16H1.4999C1.77604 16 1.9999 15.7761 1.9999 15.5C1.9999 15.2239 1.77604 15 1.4999 15H0V1C0 0.447716 0.447715 0 1 0H5.46479C5.88862 0 6.25313 0.277448 6.4841 0.632804C7.019 1.45576 7.94651 2 9.00113 2C10.0558 2 10.9833 1.45576 11.5182 0.632804ZM2.99985 5.50717V11.4928V11.5C2.99985 11.7762 3.22369 12 3.49982 12C3.77595 12 3.9998 11.7762 3.9998 11.5V11.4928V5.50717V5.49997C3.9998 5.22385 3.77595 5 3.49982 5C3.22369 5 2.99985 5.22385 2.99985 5.49997V5.50717ZM10.9994 9.00015V7.99985C10.9994 6.89536 10.104 6 8.99954 6C7.89506 6 6.9997 6.89536 6.9997 7.99985V9.00015C6.9997 10.1046 7.89506 11 8.99954 11C10.104 11 10.9994 10.1046 10.9994 9.00015ZM8.99954 5C7.34277 5 5.9997 6.34308 5.9997 7.99985V9.00015C5.9997 10.6569 7.34277 12 8.99954 12C10.6563 12 11.9994 10.6569 11.9994 9.00015V7.99985C11.9994 6.34308 10.6563 5 8.99954 5ZM13.9993 11.4928V5.50717V5.49997C13.9993 5.22385 14.2231 5 14.4993 5C14.7754 5 14.9992 5.22385 14.9992 5.49997V5.50717V11.4928V11.5C14.9992 11.7762 14.7754 12 14.4993 12C14.2231 12 13.9993 11.7762 13.9993 11.5V11.4928ZM7.99959 15.5C7.99959 15.2239 8.22345 15 8.49959 15H9.49949C9.77564 15 9.99949 15.2239 9.99949 15.5C9.99949 15.7761 9.77564 16 9.49949 16H8.49959C8.22345 16 7.99959 15.7761 7.99959 15.5ZM4.4998 15C4.22365 15 3.9998 15.2239 3.9998 15.5C3.9998 15.7761 4.22366 16 4.4998 16H5.4997C5.77584 16 5.9997 15.7761 5.9997 15.5C5.9997 15.2239 5.77584 15 5.4997 15H4.4998ZM12.4994 15C12.2233 15 11.9994 15.2239 11.9994 15.5C11.9994 15.7761 12.2233 16 12.4994 16H13.4993C13.7754 16 13.9993 15.7761 13.9993 15.5C13.9993 15.2239 13.7754 15 13.4993 15H12.4994ZM15.9992 15.5C15.9992 15.2239 16.223 15 16.4992 15H17.9991V16H16.4992C16.223 16 15.9992 15.7761 15.9992 15.5Z" fill="white"/>
</svg>
